<svg width="567" height="512" viewBox="0 0 567 512" fill="none" xmlns="http://www.w3.org/2000/svg">
<path fill-rule="evenodd" clip-rule="evenodd" d="M6.0074 1.3761C4.5744 2.1901 2.63238 4.02813 1.69438 5.46113C-1.40962 10.1971 -2.35562 4.51311 18.0134 103.442C21.8634 122.142 26.8594 146.442 29.1144 157.442C41.9174 219.874 41.8524 219.675 53.1144 230.949C61.7624 239.606 68.6714 242.806 88.6144 247.393C128.78 256.631 165.083 268.709 192.645 282.003C198.403 284.781 203.114 287.48 203.114 288.003C203.114 289.074 178.315 301.29 167.614 305.49C155.247 310.344 135.226 316.848 121.233 320.559C113.742 322.545 105.139 325.422 102.114 326.951C90.6224 332.761 81.3364 343.756 77.0534 356.624C73.7414 366.579 74.1184 376.736 78.5714 397.442C80.5814 406.792 83.0804 418.717 84.1234 423.942C85.1664 429.167 87.8594 442.217 90.1064 452.942C92.3534 463.667 95.5754 479.192 97.2664 487.442C100.735 504.372 101.877 507.193 106.413 510.041C110.971 512.904 115.339 512.166 131.138 505.86C174.985 488.361 211.121 466.005 234.712 441.783C257.894 417.982 268.457 395.398 268.546 369.442C268.587 357.416 267.172 351.095 262.012 340.252C253.768 322.926 234.19 303.915 212.068 291.754C208.793 289.953 206.114 288.217 206.114 287.895C206.114 287.574 207.841 286.34 209.952 285.153C217.802 280.741 233.855 267.949 241.209 260.244C254.088 246.753 262.006 233.203 266.222 217.442C269.502 205.181 269.289 184.934 265.738 171.442C249.312 109.025 169.788 51.2671 41.1144 8.2981C17.1254 0.288101 10.2954 -1.0589 6.0074 1.3761ZM527.614 7.37012C423.441 41.9691 350.078 86.4001 317.215 134.793C303.381 155.165 295.974 180.1 297.475 201.248C299.235 226.047 309.207 245.537 330.318 265.442C335.568 270.392 344.389 277.367 349.92 280.942C355.451 284.517 359.997 287.667 360.022 287.942C360.047 288.217 356.86 290.242 352.94 292.442C325.918 307.605 306.212 329.37 299.473 351.494C296.831 360.169 297.084 379.642 299.98 390.442C302.337 399.234 309.27 414.401 314.22 421.596C331.865 447.243 361.264 470.483 401.884 490.896C424.521 502.272 448.44 511.946 453.914 511.938C457.845 511.933 463.034 508.388 464.553 504.67C465.855 501.483 467.239 495.04 483.063 418.503C492.328 373.695 492.87 367.539 488.618 355.487C484.188 342.932 475.952 333.31 464.408 327.202C461.221 325.516 452.442 322.508 444.899 320.517C428.045 316.068 410.1 310.152 395.79 304.326C383.734 299.419 362.114 288.853 362.114 287.87C362.114 287.007 382.121 277.675 395.614 272.244C417.978 263.243 446.106 254.604 474.375 248.053C494.405 243.412 498.484 242.003 505.876 237.171C517.605 229.505 524.702 217.386 528.557 198.442C529.9 191.842 534.194 170.917 538.099 151.942C546.658 110.35 553.695 75.9511 555.588 66.4421C556.355 62.5921 559.037 49.5941 561.548 37.5571C564.059 25.5211 566.114 13.9181 566.114 11.7721C566.114 4.7221 560.893 -0.115888 553.414 0.0021118C551.324 0.0351118 539.714 3.35112 527.614 7.37012Z" fill="white"/>
</svg>
